<?xml version="1.0" encoding="utf-8"?>
<!DOCTYPE svg
  PUBLIC '-//W3C//DTD SVG 1.0//EN'
  'http://www.w3.org/TR/2001/REC-SVG-20010904/DTD/svg10.dtd'>
<svg height="500" preserveAspectRatio="xMinYMin meet" version="1.0" viewBox="0 0 1000 500" width="1000" xmlns="http://www.w3.org/2000/svg" xmlns:xlink="http://www.w3.org/1999/xlink">
	<title>...</title>
	<desc>...</desc>
	<clipPath id="clip">
		<rect height="500" width="1000" x="0" y="0"/>
	</clipPath>
	<g id="group" style="clip-path: url(#clip)" transform="scale(1,-1) translate(0,-500)">
		<g transform="">
			<polygon points="121.732760 390.113636, 208.058214 390.113636, 208.058214 396.250000, 121.732760 396.250000" style="stroke-width: 1; stroke-linecap: butt; stroke: rgb(85%,43%,57%); fill: rgb(85%,43%,57%);"/>
			<polygon points="121.732760 390.113636, 125.600703 390.113636, 125.600703 396.250000, 121.732760 396.250000" style="stroke-linecap: butt; stroke-width: 1; stroke: rgb(100%,0%,0%); fill: rgb(100%,0%,0%);"/>
			<polygon points="204.190272 390.113636, 208.058214 390.113636, 208.058214 396.250000, 204.190272 396.250000" style="stroke-width: 1; stroke-linecap: butt; stroke: rgb(100%,0%,0%); fill: rgb(100%,0%,0%);"/>
			<polygon points="261.330338 390.113636, 340.798984 390.113636, 340.798984 396.250000, 261.330338 396.250000" style="stroke-linecap: butt; stroke-width: 1; stroke: rgb(85%,43%,57%); fill: rgb(85%,43%,57%);"/>
			<polygon points="261.330338 390.113636, 265.198281 390.113636, 265.198281 396.250000, 261.330338 396.250000" style="stroke-width: 1; stroke-linecap: butt; stroke: rgb(100%,0%,0%); fill: rgb(100%,0%,0%);"/>
			<polygon points="336.931041 390.113636, 340.798984 390.113636, 340.798984 396.250000, 336.931041 396.250000" style="stroke-linecap: butt; stroke-width: 1; stroke: rgb(100%,0%,0%); fill: rgb(100%,0%,0%);"/>
			<polygon points="387.565931 390.113636, 468.265286 390.113636, 468.265286 396.250000, 387.565931 396.250000" style="stroke-width: 1; stroke-linecap: butt; stroke: rgb(85%,43%,57%); fill: rgb(85%,43%,57%);"/>
			<polygon points="387.565931 390.113636, 391.609689 390.113636, 391.609689 396.250000, 387.565931 396.250000" style="stroke-linecap: butt; stroke-width: 1; stroke: rgb(100%,0%,0%); fill: rgb(100%,0%,0%);"/>
			<polygon points="464.397343 390.113636, 468.265286 390.113636, 468.265286 396.250000, 464.397343 396.250000" style="stroke-width: 1; stroke-linecap: butt; stroke: rgb(100%,0%,0%); fill: rgb(100%,0%,0%);"/>
			<polygon points="518.900176 390.113636, 608.214495 390.113636, 608.214495 396.250000, 518.900176 396.250000" style="stroke-linecap: butt; stroke-width: 1; stroke: rgb(85%,43%,57%); fill: rgb(85%,43%,57%);"/>
			<polygon points="518.900176 390.113636, 522.768119 390.113636, 522.768119 396.250000, 518.900176 396.250000" style="stroke-width: 1; stroke-linecap: butt; stroke: rgb(100%,0%,0%); fill: rgb(100%,0%,0%);"/>
			<polygon points="604.346552 390.113636, 608.214495 390.113636, 608.214495 396.250000, 604.346552 396.250000" style="stroke-linecap: butt; stroke-width: 1; stroke: rgb(100%,0%,0%); fill: rgb(100%,0%,0%);"/>
			<polygon points="662.365696 390.113636, 747.987888 390.113636, 747.987888 396.250000, 662.365696 396.250000" style="stroke-width: 1; stroke-linecap: butt; stroke: rgb(85%,43%,57%); fill: rgb(85%,43%,57%);"/>
			<polygon points="662.365696 390.113636, 666.233639 390.113636, 666.233639 396.250000, 662.365696 396.250000" style="stroke-linecap: butt; stroke-width: 1; stroke: rgb(100%,0%,0%); fill: rgb(100%,0%,0%);"/>
			<polygon points="744.119945 390.113636, 747.987888 390.113636, 747.987888 396.250000, 744.119945 396.250000" style="stroke-width: 1; stroke-linecap: butt; stroke: rgb(100%,0%,0%); fill: rgb(100%,0%,0%);"/>
			<polygon points="795.809728 390.113636, 882.135183 390.113636, 882.135183 396.250000, 795.809728 396.250000" style="stroke-linecap: butt; stroke-width: 1; stroke: rgb(85%,43%,57%); fill: rgb(85%,43%,57%);"/>
			<polygon points="795.809728 390.113636, 799.853487 390.113636, 799.853487 396.250000, 795.809728 396.250000" style="stroke-width: 1; stroke-linecap: butt; stroke: rgb(100%,0%,0%); fill: rgb(100%,0%,0%);"/>
			<polygon points="878.267240 390.113636, 882.135183 390.113636, 882.135183 396.250000, 878.267240 396.250000" style="stroke-linecap: butt; stroke-width: 1; stroke: rgb(100%,0%,0%); fill: rgb(100%,0%,0%);"/>
			<polygon points="922.221137 390.113636, 950.000000 390.113636, 950.000000 396.250000, 922.221137 396.250000" style="stroke-width: 1; stroke-linecap: butt; stroke: rgb(85%,43%,57%); fill: rgb(85%,43%,57%);"/>
			<polygon points="50.000000 165.113636, 102.920492 165.113636, 102.920492 171.250000, 50.000000 171.250000" style="stroke-linecap: butt; stroke-width: 1; stroke: rgb(85%,43%,57%); fill: rgb(85%,43%,57%);"/>
			<polygon points="922.221137 390.113636, 926.089080 390.113636, 926.089080 396.250000, 922.221137 396.250000" style="stroke-width: 1; stroke-linecap: butt; stroke: rgb(100%,0%,0%); fill: rgb(100%,0%,0%);"/>
			<polygon points="99.052549 165.113636, 102.920492 165.113636, 102.920492 171.250000, 99.052549 171.250000" style="stroke-linecap: butt; stroke-width: 1; stroke: rgb(100%,0%,0%); fill: rgb(100%,0%,0%);"/>
			<polygon points="148.632545 165.113636, 232.848213 165.113636, 232.848213 171.250000, 148.632545 171.250000" style="stroke-width: 1; stroke-linecap: butt; stroke: rgb(85%,43%,57%); fill: rgb(85%,43%,57%);"/>
			<polygon points="148.632545 165.113636, 152.500488 165.113636, 152.500488 171.250000, 148.632545 171.250000" style="stroke-linecap: butt; stroke-width: 1; stroke: rgb(100%,0%,0%); fill: rgb(100%,0%,0%);"/>
			<polygon points="228.980270 165.113636, 232.848213 165.113636, 232.848213 171.250000, 228.980270 171.250000" style="stroke-width: 1; stroke-linecap: butt; stroke: rgb(100%,0%,0%); fill: rgb(100%,0%,0%);"/>
			<polygon points="276.274663 165.113636, 360.314515 165.113636, 360.314515 171.250000, 276.274663 171.250000" style="stroke-linecap: butt; stroke-width: 1; stroke: rgb(85%,43%,57%); fill: rgb(85%,43%,57%);"/>
			<polygon points="276.274663 165.113636, 280.142606 165.113636, 280.142606 171.250000, 276.274663 171.250000" style="stroke-width: 1; stroke-linecap: butt; stroke: rgb(100%,0%,0%); fill: rgb(100%,0%,0%);"/>
			<polygon points="356.446572 165.113636, 360.314515 165.113636, 360.314515 171.250000, 356.446572 171.250000" style="stroke-linecap: butt; stroke-width: 1; stroke: rgb(100%,0%,0%); fill: rgb(100%,0%,0%);"/>
			<polygon points="410.597773 165.113636, 491.472944 165.113636, 491.472944 171.250000, 410.597773 171.250000" style="stroke-width: 1; stroke-linecap: butt; stroke: rgb(85%,43%,57%); fill: rgb(85%,43%,57%);"/>
			<polygon points="410.597773 165.113636, 414.465716 165.113636, 414.465716 171.250000, 410.597773 171.250000" style="stroke-linecap: butt; stroke-width: 1; stroke: rgb(100%,0%,0%); fill: rgb(100%,0%,0%);"/>
			<polygon points="487.605001 165.113636, 491.472944 165.113636, 491.472944 171.250000, 487.605001 171.250000" style="stroke-width: 1; stroke-linecap: butt; stroke: rgb(100%,0%,0%); fill: rgb(100%,0%,0%);"/>
			<polygon points="534.196132 165.113636, 613.488963 165.113636, 613.488963 171.250000, 534.196132 171.250000" style="stroke-linecap: butt; stroke-width: 1; stroke: rgb(85%,43%,57%); fill: rgb(85%,43%,57%);"/>
			<polygon points="534.196132 165.113636, 538.064075 165.113636, 538.064075 171.250000, 534.196132 171.250000" style="stroke-width: 1; stroke-linecap: butt; stroke: rgb(100%,0%,0%); fill: rgb(100%,0%,0%);"/>
			<polygon points="609.621020 165.113636, 613.488963 165.113636, 613.488963 171.250000, 609.621020 171.250000" style="stroke-linecap: butt; stroke-width: 1; stroke: rgb(100%,0%,0%); fill: rgb(100%,0%,0%);"/>
			<polygon points="661.486618 165.113636, 752.910725 165.113636, 752.910725 171.250000, 661.486618 171.250000" style="stroke-width: 1; stroke-linecap: butt; stroke: rgb(85%,43%,57%); fill: rgb(85%,43%,57%);"/>
			<polygon points="661.486618 165.113636, 665.354561 165.113636, 665.354561 171.250000, 661.486618 171.250000" style="stroke-linecap: butt; stroke-width: 1; stroke: rgb(100%,0%,0%); fill: rgb(100%,0%,0%);"/>
			<polygon points="749.042782 165.113636, 752.910725 165.113636, 752.910725 171.250000, 749.042782 171.250000" style="stroke-width: 1; stroke-linecap: butt; stroke: rgb(100%,0%,0%); fill: rgb(100%,0%,0%);"/>
			<polygon points="803.721430 165.113636, 895.848799 165.113636, 895.848799 171.250000, 803.721430 171.250000" style="stroke-linecap: butt; stroke-width: 1; stroke: rgb(85%,43%,57%); fill: rgb(85%,43%,57%);"/>
			<polygon points="803.721430 165.113636, 807.589373 165.113636, 807.589373 171.250000, 803.721430 171.250000" style="stroke-width: 1; stroke-linecap: butt; stroke: rgb(100%,0%,0%); fill: rgb(100%,0%,0%);"/>
			<polygon points="891.980856 165.113636, 895.848799 165.113636, 895.848799 171.250000, 891.980856 171.250000" style="stroke-linecap: butt; stroke-width: 1; stroke: rgb(100%,0%,0%); fill: rgb(100%,0%,0%);"/>
			<polygon points="50.351631 457.613636, 140.369213 457.613636, 140.369213 463.750000, 50.351631 463.750000" style="stroke-width: 1; stroke-linecap: butt; stroke: rgb(85%,43%,57%); fill: rgb(85%,43%,57%);"/>
			<polygon points="50.351631 457.613636, 54.219574 457.613636, 54.219574 463.750000, 50.351631 463.750000" style="stroke-linecap: butt; stroke-width: 1; stroke: rgb(100%,0%,0%); fill: rgb(100%,0%,0%);"/>
			<polygon points="136.501270 457.613636, 140.369213 457.613636, 140.369213 463.750000, 136.501270 463.750000" style="stroke-width: 1; stroke-linecap: butt; stroke: rgb(100%,0%,0%); fill: rgb(100%,0%,0%);"/>
			<polygon points="189.773393 457.613636, 281.197500 457.613636, 281.197500 463.750000, 189.773393 463.750000" style="stroke-linecap: butt; stroke-width: 1; stroke: rgb(85%,43%,57%); fill: rgb(85%,43%,57%);"/>
			<polygon points="189.773393 457.613636, 193.641336 457.613636, 193.641336 463.750000, 189.773393 463.750000" style="stroke-width: 1; stroke-linecap: butt; stroke: rgb(100%,0%,0%); fill: rgb(100%,0%,0%);"/>
			<polygon points="277.329557 457.613636, 281.197500 457.613636, 281.197500 463.750000, 277.329557 463.750000" style="stroke-linecap: butt; stroke-width: 1; stroke: rgb(100%,0%,0%); fill: rgb(100%,0%,0%);"/>
			<polygon points="322.338347 457.613636, 406.905646 457.613636, 406.905646 463.750000, 322.338347 463.750000" style="stroke-width: 1; stroke-linecap: butt; stroke: rgb(85%,43%,57%); fill: rgb(85%,43%,57%);"/>
			<polygon points="322.338347 457.613636, 326.206290 457.613636, 326.206290 463.750000, 322.338347 463.750000" style="stroke-linecap: butt; stroke-width: 1; stroke: rgb(100%,0%,0%); fill: rgb(100%,0%,0%);"/>
			<polygon points="403.037703 457.613636, 406.905646 457.613636, 406.905646 463.750000, 403.037703 463.750000" style="stroke-width: 1; stroke-linecap: butt; stroke: rgb(100%,0%,0%); fill: rgb(100%,0%,0%);"/>
			<polygon points="448.749756 457.613636, 536.481735 457.613636, 536.481735 463.750000, 448.749756 463.750000" style="stroke-linecap: butt; stroke-width: 1; stroke: rgb(85%,43%,57%); fill: rgb(85%,43%,57%);"/>
			<polygon points="448.749756 457.613636, 452.793514 457.613636, 452.793514 463.750000, 448.749756 463.750000" style="stroke-width: 1; stroke-linecap: butt; stroke: rgb(100%,0%,0%); fill: rgb(100%,0%,0%);"/>
			<polygon points="532.613792 457.613636, 536.481735 457.613636, 536.481735 463.750000, 532.613792 463.750000" style="stroke-linecap: butt; stroke-width: 1; stroke: rgb(100%,0%,0%); fill: rgb(100%,0%,0%);"/>
			<polygon points="589.578043 457.613636, 679.595624 457.613636, 679.595624 463.750000, 589.578043 463.750000" style="stroke-width: 1; stroke-linecap: butt; stroke: rgb(85%,43%,57%); fill: rgb(85%,43%,57%);"/>
			<polygon points="589.578043 457.613636, 593.445986 457.613636, 593.445986 463.750000, 589.578043 463.750000" style="stroke-linecap: butt; stroke-width: 1; stroke: rgb(100%,0%,0%); fill: rgb(100%,0%,0%);"/>
			<polygon points="675.727681 457.613636, 679.595624 457.613636, 679.595624 463.750000, 675.727681 463.750000" style="stroke-width: 1; stroke-linecap: butt; stroke: rgb(100%,0%,0%); fill: rgb(100%,0%,0%);"/>
			<polygon points="728.999805 457.613636, 814.270365 457.613636, 814.270365 463.750000, 728.999805 463.750000" style="stroke-linecap: butt; stroke-width: 1; stroke: rgb(85%,43%,57%); fill: rgb(85%,43%,57%);"/>
			<polygon points="728.999805 457.613636, 732.867748 457.613636, 732.867748 463.750000, 728.999805 463.750000" style="stroke-width: 1; stroke-linecap: butt; stroke: rgb(100%,0%,0%); fill: rgb(100%,0%,0%);"/>
			<polygon points="810.402422 457.613636, 814.270365 457.613636, 814.270365 463.750000, 810.402422 463.750000" style="stroke-linecap: butt; stroke-width: 1; stroke: rgb(100%,0%,0%); fill: rgb(100%,0%,0%);"/>
			<polygon points="861.740574 457.613636, 941.560852 457.613636, 941.560852 463.750000, 861.740574 463.750000" style="stroke-width: 1; stroke-linecap: butt; stroke: rgb(85%,43%,57%); fill: rgb(85%,43%,57%);"/>
			<polygon points="861.740574 457.613636, 865.608517 457.613636, 865.608517 463.750000, 861.740574 463.750000" style="stroke-linecap: butt; stroke-width: 1; stroke: rgb(100%,0%,0%); fill: rgb(100%,0%,0%);"/>
			<polygon points="937.692909 457.613636, 941.560852 457.613636, 941.560852 463.750000, 937.692909 463.750000" style="stroke-width: 1; stroke-linecap: butt; stroke: rgb(100%,0%,0%); fill: rgb(100%,0%,0%);"/>
			<polygon points="83.053331 232.613636, 165.686658 232.613636, 165.686658 238.750000, 83.053331 238.750000" style="stroke-linecap: butt; stroke-width: 1; stroke: rgb(85%,43%,57%); fill: rgb(85%,43%,57%);"/>
			<polygon points="83.053331 232.613636, 87.448720 232.613636, 87.448720 238.750000, 83.053331 238.750000" style="stroke-width: 1; stroke-linecap: butt; stroke: rgb(100%,0%,0%); fill: rgb(100%,0%,0%);"/>
			<polygon points="161.818715 232.613636, 165.686658 232.613636, 165.686658 238.750000, 161.818715 238.750000" style="stroke-linecap: butt; stroke-width: 1; stroke: rgb(100%,0%,0%); fill: rgb(100%,0%,0%);"/>
			<polygon points="212.453604 232.613636, 292.977144 232.613636, 292.977144 238.750000, 212.453604 238.750000" style="stroke-width: 1; stroke-linecap: butt; stroke: rgb(85%,43%,57%); fill: rgb(85%,43%,57%);"/>
			<polygon points="212.453604 232.613636, 216.321547 232.613636, 216.321547 238.750000, 212.453604 238.750000" style="stroke-linecap: butt; stroke-width: 1; stroke: rgb(100%,0%,0%); fill: rgb(100%,0%,0%);"/>
			<polygon points="289.109201 232.613636, 292.977144 232.613636, 292.977144 238.750000, 289.109201 238.750000" style="stroke-width: 1; stroke-linecap: butt; stroke: rgb(100%,0%,0%); fill: rgb(100%,0%,0%);"/>
			<polygon points="341.326431 232.613636, 429.410041 232.613636, 429.410041 238.750000, 341.326431 238.750000" style="stroke-linecap: butt; stroke-width: 1; stroke: rgb(85%,43%,57%); fill: rgb(85%,43%,57%);"/>
			<polygon points="341.326431 232.613636, 345.370189 232.613636, 345.370189 238.750000, 341.326431 238.750000" style="stroke-width: 1; stroke-linecap: butt; stroke: rgb(100%,0%,0%); fill: rgb(100%,0%,0%);"/>
			<polygon points="425.542098 232.613636, 429.410041 232.613636, 429.410041 238.750000, 425.542098 238.750000" style="stroke-linecap: butt; stroke-width: 1; stroke: rgb(100%,0%,0%); fill: rgb(100%,0%,0%);"/>
			<polygon points="468.089471 232.613636, 552.832584 232.613636, 552.832584 238.750000, 468.089471 238.750000" style="stroke-width: 1; stroke-linecap: butt; stroke: rgb(85%,43%,57%); fill: rgb(85%,43%,57%);"/>
			<polygon points="468.089471 232.613636, 471.957414 232.613636, 471.957414 238.750000, 468.089471 238.750000" style="stroke-linecap: butt; stroke-width: 1; stroke: rgb(100%,0%,0%); fill: rgb(100%,0%,0%);"/>
			<polygon points="548.964642 232.613636, 552.832584 232.613636, 552.832584 238.750000, 548.964642 238.750000" style="stroke-width: 1; stroke-linecap: butt; stroke: rgb(100%,0%,0%); fill: rgb(100%,0%,0%);"/>
			<polygon points="593.797617 232.613636, 678.189099 232.613636, 678.189099 238.750000, 593.797617 238.750000" style="stroke-linecap: butt; stroke-width: 1; stroke: rgb(85%,43%,57%); fill: rgb(85%,43%,57%);"/>
			<polygon points="593.797617 232.613636, 597.665560 232.613636, 597.665560 238.750000, 593.797617 238.750000" style="stroke-width: 1; stroke-linecap: butt; stroke: rgb(100%,0%,0%); fill: rgb(100%,0%,0%);"/>
			<polygon points="674.321156 232.613636, 678.189099 232.613636, 678.189099 238.750000, 674.321156 238.750000" style="stroke-linecap: butt; stroke-width: 1; stroke: rgb(100%,0%,0%); fill: rgb(100%,0%,0%);"/>
			<polygon points="731.461223 232.613636, 823.588592 232.613636, 823.588592 238.750000, 731.461223 238.750000" style="stroke-width: 1; stroke-linecap: butt; stroke: rgb(85%,43%,57%); fill: rgb(85%,43%,57%);"/>
			<polygon points="731.461223 232.613636, 735.329166 232.613636, 735.329166 238.750000, 731.461223 238.750000" style="stroke-linecap: butt; stroke-width: 1; stroke: rgb(100%,0%,0%); fill: rgb(100%,0%,0%);"/>
			<polygon points="819.720649 232.613636, 823.588592 232.613636, 823.588592 238.750000, 819.720649 238.750000" style="stroke-width: 1; stroke-linecap: butt; stroke: rgb(100%,0%,0%); fill: rgb(100%,0%,0%);"/>
			<polygon points="858.927525 232.613636, 946.483688 232.613636, 946.483688 238.750000, 858.927525 238.750000" style="stroke-linecap: butt; stroke-width: 1; stroke: rgb(85%,43%,57%); fill: rgb(85%,43%,57%);"/>
			<polygon points="858.927525 232.613636, 862.795468 232.613636, 862.795468 238.750000, 858.927525 238.750000" style="stroke-width: 1; stroke-linecap: butt; stroke: rgb(100%,0%,0%); fill: rgb(100%,0%,0%);"/>
			<polygon points="942.615745 232.613636, 946.483688 232.613636, 946.483688 238.750000, 942.615745 238.750000" style="stroke-linecap: butt; stroke-width: 1; stroke: rgb(100%,0%,0%); fill: rgb(100%,0%,0%);"/>
			<path d="M 50.000000,325.681818 L 950.000000,325.681818 Z" style="stroke-width: 1; stroke-linecap: butt; stroke: rgb(0%,0%,0%);"/>
			<path d="M 50.000000,322.613636 L 50.000000,328.750000 Z" style="stroke-linecap: butt; stroke-width: 1; stroke: rgb(0%,0%,0%);"/>
			<path d="M 949.648369,97.613636 L 949.648369,103.750000 Z" style="stroke-width: 1; stroke-linecap: butt; stroke: rgb(0%,0%,0%);"/>
			<path d="M 50.000000,100.681818 L 949.648369,100.681818 Z" style="stroke-linecap: butt; stroke-width: 1; stroke: rgb(0%,0%,0%);"/>
			<path d="M 50.000000,97.613636 L 50.000000,103.750000 Z" style="stroke-width: 1; stroke-linecap: butt; stroke: rgb(0%,0%,0%);"/>
			<path d="M 225.815589,325.681818 L 225.815589,327.215909 Z" style="stroke-linecap: butt; stroke-width: 1; stroke: rgb(0%,0%,0%);"/>
			<path d="M 401.631178,325.681818 L 401.631178,327.215909 Z" style="stroke-width: 1; stroke-linecap: butt; stroke: rgb(0%,0%,0%);"/>
			<path d="M 577.446767,325.681818 L 577.446767,327.215909 Z" style="stroke-linecap: butt; stroke-width: 1; stroke: rgb(0%,0%,0%);"/>
			<path d="M 753.262356,325.681818 L 753.262356,327.215909 Z" style="stroke-width: 1; stroke-linecap: butt; stroke: rgb(0%,0%,0%);"/>
			<path d="M 929.077945,325.681818 L 929.077945,327.215909 Z" style="stroke-linecap: butt; stroke-width: 1; stroke: rgb(0%,0%,0%);"/>
			<path d="M 204.893534,100.681818 L 204.893534,102.215909 Z" style="stroke-width: 1; stroke-linecap: butt; stroke: rgb(0%,0%,0%);"/>
			<path d="M 380.709123,100.681818 L 380.709123,102.215909 Z" style="stroke-linecap: butt; stroke-width: 1; stroke: rgb(0%,0%,0%);"/>
			<path d="M 556.524712,100.681818 L 556.524712,102.215909 Z" style="stroke-width: 1; stroke-linecap: butt; stroke: rgb(0%,0%,0%);"/>
			<path d="M 732.340301,100.681818 L 732.340301,102.215909 Z" style="stroke-linecap: butt; stroke-width: 1; stroke: rgb(0%,0%,0%);"/>
			<path d="M 908.155890,100.681818 L 908.155890,102.215909 Z" style="stroke-width: 1; stroke-linecap: butt; stroke: rgb(0%,0%,0%);"/>
			<path d="M 908.155890,100.681818 L 908.155890,101.602273 Z" style="stroke-linecap: butt; stroke-width: 1; stroke: rgb(0%,0%,0%);"/>
			<path d="M 50.000000,393.181818 L 950.000000,393.181818 Z" style="stroke-width: 1; stroke-linecap: butt; stroke: rgb(0%,0%,0%);"/>
			<path d="M 50.000000,390.113636 L 50.000000,396.250000 Z" style="stroke-linecap: butt; stroke-width: 1; stroke: rgb(0%,0%,0%);"/>
			<path d="M 949.648369,165.113636 L 949.648369,171.250000 Z" style="stroke-width: 1; stroke-linecap: butt; stroke: rgb(0%,0%,0%);"/>
			<path d="M 50.000000,168.181818 L 949.648369,168.181818 Z" style="stroke-linecap: butt; stroke-width: 1; stroke: rgb(0%,0%,0%);"/>
			<path d="M 50.000000,165.113636 L 50.000000,171.250000 Z" style="stroke-width: 1; stroke-linecap: butt; stroke: rgb(0%,0%,0%);"/>
			<path d="M 908.155890,168.181818 L 908.155890,169.102273 Z" style="stroke-linecap: butt; stroke-width: 1; stroke: rgb(0%,0%,0%);"/>
			<path d="M 50.000000,460.681818 L 950.000000,460.681818 Z" style="stroke-width: 1; stroke-linecap: butt; stroke: rgb(0%,0%,0%);"/>
			<path d="M 50.000000,457.613636 L 50.000000,463.750000 Z" style="stroke-linecap: butt; stroke-width: 1; stroke: rgb(0%,0%,0%);"/>
			<path d="M 949.648369,232.613636 L 949.648369,238.750000 Z" style="stroke-width: 1; stroke-linecap: butt; stroke: rgb(0%,0%,0%);"/>
			<path d="M 50.000000,235.681818 L 949.648369,235.681818 Z" style="stroke-linecap: butt; stroke-width: 1; stroke: rgb(0%,0%,0%);"/>
			<path d="M 50.000000,232.613636 L 50.000000,238.750000 Z" style="stroke-width: 1; stroke-linecap: butt; stroke: rgb(0%,0%,0%);"/>
			<path d="M 908.155890,235.681818 L 908.155890,236.602273 Z" style="stroke-linecap: butt; stroke-width: 1; stroke: rgb(0%,0%,0%);"/>
			<g transform=" matrix(0.707107, 0.707107, -0.707107, 0.707107, 225.815589, 327.215909)">
				<text style="font-size: 10px; font-family: Helvetica; fill: rgb(0%,0%,0%);" transform="translate(0,0) scale(1,-1)" x="0" y="0">1000</text>
			</g>
			<g transform=" matrix(0.707107, 0.707107, -0.707107, 0.707107, 401.631178, 327.215909)">
				<text style="font-size: 10px; font-family: Helvetica; fill: rgb(0%,0%,0%);" transform="translate(0,0) scale(1,-1)" x="0" y="0">2000</text>
			</g>
			<g transform=" matrix(0.707107, 0.707107, -0.707107, 0.707107, 577.446767, 327.215909)">
				<text style="font-size: 10px; font-family: Helvetica; fill: rgb(0%,0%,0%);" transform="translate(0,0) scale(1,-1)" x="0" y="0">3000</text>
			</g>
			<g transform=" matrix(0.707107, 0.707107, -0.707107, 0.707107, 753.262356, 327.215909)">
				<text style="font-size: 10px; font-family: Helvetica; fill: rgb(0%,0%,0%);" transform="translate(0,0) scale(1,-1)" x="0" y="0">4000</text>
			</g>
			<g transform=" matrix(0.707107, 0.707107, -0.707107, 0.707107, 929.077945, 327.215909)">
				<text style="font-size: 10px; font-family: Helvetica; fill: rgb(0%,0%,0%);" transform="translate(0,0) scale(1,-1)" x="0" y="0">5000</text>
			</g>
			<g transform=" matrix(0.707107, 0.707107, -0.707107, 0.707107, 204.893534, 102.215909)">
				<text style="font-size: 10px; font-family: Helvetica; fill: rgb(0%,0%,0%);" transform="translate(0,0) scale(1,-1)" x="0" y="0">6000</text>
			</g>
			<g transform=" matrix(0.707107, 0.707107, -0.707107, 0.707107, 380.709123, 102.215909)">
				<text style="font-size: 10px; font-family: Helvetica; fill: rgb(0%,0%,0%);" transform="translate(0,0) scale(1,-1)" x="0" y="0">7000</text>
			</g>
			<g transform=" matrix(0.707107, 0.707107, -0.707107, 0.707107, 556.524712, 102.215909)">
				<text style="font-size: 10px; font-family: Helvetica; fill: rgb(0%,0%,0%);" transform="translate(0,0) scale(1,-1)" x="0" y="0">8000</text>
			</g>
			<g transform=" matrix(0.707107, 0.707107, -0.707107, 0.707107, 732.340301, 102.215909)">
				<text style="font-size: 10px; font-family: Helvetica; fill: rgb(0%,0%,0%);" transform="translate(0,0) scale(1,-1)" x="0" y="0">9000</text>
			</g>
			<g transform=" matrix(0.707107, 0.707107, -0.707107, 0.707107, 908.155890, 102.215909)">
				<text style="font-size: 10px; font-family: Helvetica; fill: rgb(0%,0%,0%);" transform="translate(0,0) scale(1,-1)" x="0" y="0">10000</text>
			</g>
			<g transform=" matrix(1.000000, 0.000000, -0.000000, 1.000000, 164.895487, 396.250000)">
				<text style="font-size: 10px; font-family: Helvetica; fill: rgb(0%,0%,0%);" transform="translate(0,0) scale(1,-1)" x="0" y="0">2</text>
			</g>
			<g transform=" matrix(1.000000, 0.000000, -0.000000, 1.000000, 301.064661, 396.250000)">
				<text style="font-size: 10px; font-family: Helvetica; fill: rgb(0%,0%,0%);" transform="translate(0,0) scale(1,-1)" x="0" y="0">4</text>
			</g>
			<g transform=" matrix(1.000000, 0.000000, -0.000000, 1.000000, 427.915609, 396.250000)">
				<text style="font-size: 10px; font-family: Helvetica; fill: rgb(0%,0%,0%);" transform="translate(0,0) scale(1,-1)" x="0" y="0">6</text>
			</g>
			<g transform=" matrix(1.000000, 0.000000, -0.000000, 1.000000, 563.557335, 396.250000)">
				<text style="font-size: 10px; font-family: Helvetica; fill: rgb(0%,0%,0%);" transform="translate(0,0) scale(1,-1)" x="0" y="0">8</text>
			</g>
			<g transform=" matrix(1.000000, 0.000000, -0.000000, 1.000000, 705.176792, 396.250000)">
				<text style="font-size: 10px; font-family: Helvetica; fill: rgb(0%,0%,0%);" transform="translate(0,0) scale(1,-1)" x="0" y="0">10</text>
			</g>
			<g transform=" matrix(1.000000, 0.000000, -0.000000, 1.000000, 838.972456, 396.250000)">
				<text style="font-size: 10px; font-family: Helvetica; fill: rgb(0%,0%,0%);" transform="translate(0,0) scale(1,-1)" x="0" y="0">12</text>
			</g>
			<g transform=" matrix(1.000000, 0.000000, -0.000000, 1.000000, 936.110568, 396.250000)">
				<text style="font-size: 10px; font-family: Helvetica; fill: rgb(0%,0%,0%);" transform="translate(0,0) scale(1,-1)" x="0" y="0">14</text>
			</g>
			<g transform=" matrix(1.000000, 0.000000, -0.000000, 1.000000, 76.460246, 171.250000)">
				<text style="font-size: 10px; font-family: Helvetica; fill: rgb(0%,0%,0%);" transform="translate(0,0) scale(1,-1)" x="0" y="0">14</text>
			</g>
			<g transform=" matrix(1.000000, 0.000000, -0.000000, 1.000000, 190.740379, 171.250000)">
				<text style="font-size: 10px; font-family: Helvetica; fill: rgb(0%,0%,0%);" transform="translate(0,0) scale(1,-1)" x="0" y="0">16</text>
			</g>
			<g transform=" matrix(1.000000, 0.000000, -0.000000, 1.000000, 318.294589, 171.250000)">
				<text style="font-size: 10px; font-family: Helvetica; fill: rgb(0%,0%,0%);" transform="translate(0,0) scale(1,-1)" x="0" y="0">18</text>
			</g>
			<g transform=" matrix(1.000000, 0.000000, -0.000000, 1.000000, 451.035358, 171.250000)">
				<text style="font-size: 10px; font-family: Helvetica; fill: rgb(0%,0%,0%);" transform="translate(0,0) scale(1,-1)" x="0" y="0">20</text>
			</g>
			<g transform=" matrix(1.000000, 0.000000, -0.000000, 1.000000, 573.842547, 171.250000)">
				<text style="font-size: 10px; font-family: Helvetica; fill: rgb(0%,0%,0%);" transform="translate(0,0) scale(1,-1)" x="0" y="0">22</text>
			</g>
			<g transform=" matrix(1.000000, 0.000000, -0.000000, 1.000000, 707.198672, 171.250000)">
				<text style="font-size: 10px; font-family: Helvetica; fill: rgb(0%,0%,0%);" transform="translate(0,0) scale(1,-1)" x="0" y="0">24</text>
			</g>
			<g transform=" matrix(1.000000, 0.000000, -0.000000, 1.000000, 849.785114, 171.250000)">
				<text style="font-size: 10px; font-family: Helvetica; fill: rgb(0%,0%,0%);" transform="translate(0,0) scale(1,-1)" x="0" y="0">26</text>
			</g>
			<g transform=" matrix(1.000000, 0.000000, -0.000000, 1.000000, 95.360422, 463.750000)">
				<text style="font-size: 10px; font-family: Helvetica; fill: rgb(0%,0%,0%);" transform="translate(0,0) scale(1,-1)" x="0" y="0">1</text>
			</g>
			<g transform=" matrix(1.000000, 0.000000, -0.000000, 1.000000, 235.485446, 463.750000)">
				<text style="font-size: 10px; font-family: Helvetica; fill: rgb(0%,0%,0%);" transform="translate(0,0) scale(1,-1)" x="0" y="0">3</text>
			</g>
			<g transform=" matrix(1.000000, 0.000000, -0.000000, 1.000000, 364.621996, 463.750000)">
				<text style="font-size: 10px; font-family: Helvetica; fill: rgb(0%,0%,0%);" transform="translate(0,0) scale(1,-1)" x="0" y="0">5</text>
			</g>
			<g transform=" matrix(1.000000, 0.000000, -0.000000, 1.000000, 492.615745, 463.750000)">
				<text style="font-size: 10px; font-family: Helvetica; fill: rgb(0%,0%,0%);" transform="translate(0,0) scale(1,-1)" x="0" y="0">7</text>
			</g>
			<g transform=" matrix(1.000000, 0.000000, -0.000000, 1.000000, 634.586833, 463.750000)">
				<text style="font-size: 10px; font-family: Helvetica; fill: rgb(0%,0%,0%);" transform="translate(0,0) scale(1,-1)" x="0" y="0">9</text>
			</g>
			<g transform=" matrix(1.000000, 0.000000, -0.000000, 1.000000, 771.635085, 463.750000)">
				<text style="font-size: 10px; font-family: Helvetica; fill: rgb(0%,0%,0%);" transform="translate(0,0) scale(1,-1)" x="0" y="0">11</text>
			</g>
			<g transform=" matrix(1.000000, 0.000000, -0.000000, 1.000000, 901.650713, 463.750000)">
				<text style="font-size: 10px; font-family: Helvetica; fill: rgb(0%,0%,0%);" transform="translate(0,0) scale(1,-1)" x="0" y="0">13</text>
			</g>
			<g transform=" matrix(1.000000, 0.000000, -0.000000, 1.000000, 124.369994, 238.750000)">
				<text style="font-size: 10px; font-family: Helvetica; fill: rgb(0%,0%,0%);" transform="translate(0,0) scale(1,-1)" x="0" y="0">15</text>
			</g>
			<g transform=" matrix(1.000000, 0.000000, -0.000000, 1.000000, 252.715374, 238.750000)">
				<text style="font-size: 10px; font-family: Helvetica; fill: rgb(0%,0%,0%);" transform="translate(0,0) scale(1,-1)" x="0" y="0">17</text>
			</g>
			<g transform=" matrix(1.000000, 0.000000, -0.000000, 1.000000, 385.368236, 238.750000)">
				<text style="font-size: 10px; font-family: Helvetica; fill: rgb(0%,0%,0%);" transform="translate(0,0) scale(1,-1)" x="0" y="0">19</text>
			</g>
			<g transform=" matrix(1.000000, 0.000000, -0.000000, 1.000000, 510.461028, 238.750000)">
				<text style="font-size: 10px; font-family: Helvetica; fill: rgb(0%,0%,0%);" transform="translate(0,0) scale(1,-1)" x="0" y="0">21</text>
			</g>
			<g transform=" matrix(1.000000, 0.000000, -0.000000, 1.000000, 635.993358, 238.750000)">
				<text style="font-size: 10px; font-family: Helvetica; fill: rgb(0%,0%,0%);" transform="translate(0,0) scale(1,-1)" x="0" y="0">23</text>
			</g>
			<g transform=" matrix(1.000000, 0.000000, -0.000000, 1.000000, 777.524907, 238.750000)">
				<text style="font-size: 10px; font-family: Helvetica; fill: rgb(0%,0%,0%);" transform="translate(0,0) scale(1,-1)" x="0" y="0">25</text>
			</g>
			<g transform=" matrix(1.000000, 0.000000, -0.000000, 1.000000, 902.705607, 238.750000)">
				<text style="font-size: 10px; font-family: Helvetica; fill: rgb(0%,0%,0%);" transform="translate(0,0) scale(1,-1)" x="0" y="0">27</text>
			</g>
		</g>
	</g>
</svg>
