<?xml version="1.0" encoding="utf-8"?>
<!DOCTYPE svg
  PUBLIC '-//W3C//DTD SVG 1.0//EN'
  'http://www.w3.org/TR/2001/REC-SVG-20010904/DTD/svg10.dtd'>
<svg height="500" preserveAspectRatio="xMinYMin meet" version="1.0" viewBox="0 0 1000 500" width="1000" xmlns="http://www.w3.org/2000/svg" xmlns:xlink="http://www.w3.org/1999/xlink">
	<title>...</title>
	<desc>...</desc>
	<clipPath id="clip">
		<rect height="500" width="1000" x="0" y="0"/>
	</clipPath>
	<g id="group" style="clip-path: url(#clip)" transform="scale(1,-1) translate(0,-500)">
		<g transform="">
			<polygon points="199.970697 390.113636, 366.292245 390.113636, 366.292245 396.250000, 199.970697 396.250000" style="stroke-width: 1; stroke-linecap: butt; stroke: rgb(85%,43%,57%); fill: rgb(85%,43%,57%);"/>
			<polygon points="199.970697 390.113636, 204.190272 390.113636, 204.190272 396.250000, 199.970697 396.250000" style="stroke-linecap: butt; stroke-width: 1; stroke: rgb(100%,0%,0%); fill: rgb(100%,0%,0%);"/>
			<polygon points="362.424302 390.113636, 366.292245 390.113636, 366.292245 396.250000, 362.424302 396.250000" style="stroke-width: 1; stroke-linecap: butt; stroke: rgb(100%,0%,0%); fill: rgb(100%,0%,0%);"/>
			<polygon points="505.538191 390.113636, 679.595624 390.113636, 679.595624 396.250000, 505.538191 396.250000" style="stroke-linecap: butt; stroke-width: 1; stroke: rgb(85%,43%,57%); fill: rgb(85%,43%,57%);"/>
			<polygon points="505.538191 390.113636, 509.406134 390.113636, 509.406134 396.250000, 505.538191 396.250000" style="stroke-width: 1; stroke-linecap: butt; stroke: rgb(100%,0%,0%); fill: rgb(100%,0%,0%);"/>
			<polygon points="675.727681 390.113636, 679.595624 390.113636, 679.595624 396.250000, 675.727681 396.250000" style="stroke-linecap: butt; stroke-width: 1; stroke: rgb(100%,0%,0%); fill: rgb(100%,0%,0%);"/>
			<polygon points="804.248877 390.113636, 950.000000 390.113636, 950.000000 396.250000, 804.248877 396.250000" style="stroke-width: 1; stroke-linecap: butt; stroke: rgb(85%,43%,57%); fill: rgb(85%,43%,57%);"/>
			<polygon points="50.000000 165.113636, 74.438367 165.113636, 74.438367 171.250000, 50.000000 171.250000" style="stroke-linecap: butt; stroke-width: 1; stroke: rgb(85%,43%,57%); fill: rgb(85%,43%,57%);"/>
			<polygon points="804.248877 390.113636, 808.116820 390.113636, 808.116820 396.250000, 804.248877 396.250000" style="stroke-width: 1; stroke-linecap: butt; stroke: rgb(100%,0%,0%); fill: rgb(100%,0%,0%);"/>
			<polygon points="70.570424 165.113636, 74.438367 165.113636, 74.438367 171.250000, 70.570424 171.250000" style="stroke-linecap: butt; stroke-width: 1; stroke: rgb(100%,0%,0%); fill: rgb(100%,0%,0%);"/>
			<polygon points="212.453604 165.113636, 371.039265 165.113636, 371.039265 171.250000, 212.453604 171.250000" style="stroke-width: 1; stroke-linecap: butt; stroke: rgb(85%,43%,57%); fill: rgb(85%,43%,57%);"/>
			<polygon points="212.453604 165.113636, 216.321547 165.113636, 216.321547 171.250000, 212.453604 171.250000" style="stroke-linecap: butt; stroke-width: 1; stroke: rgb(100%,0%,0%); fill: rgb(100%,0%,0%);"/>
			<polygon points="367.171323 165.113636, 371.039265 165.113636, 371.039265 171.250000, 367.171323 171.250000" style="stroke-width: 1; stroke-linecap: butt; stroke: rgb(100%,0%,0%); fill: rgb(100%,0%,0%);"/>
			<polygon points="511.340105 165.113636, 678.189099 165.113636, 678.189099 171.250000, 511.340105 171.250000" style="stroke-linecap: butt; stroke-width: 1; stroke: rgb(85%,43%,57%); fill: rgb(85%,43%,57%);"/>
			<polygon points="511.340105 165.113636, 515.208048 165.113636, 515.208048 171.250000, 511.340105 171.250000" style="stroke-width: 1; stroke-linecap: butt; stroke: rgb(100%,0%,0%); fill: rgb(100%,0%,0%);"/>
			<polygon points="674.321156 165.113636, 678.189099 165.113636, 678.189099 171.250000, 674.321156 171.250000" style="stroke-linecap: butt; stroke-width: 1; stroke: rgb(100%,0%,0%); fill: rgb(100%,0%,0%);"/>
			<polygon points="775.590936 165.113636, 946.307873 165.113636, 946.307873 171.250000, 775.590936 171.250000" style="stroke-width: 1; stroke-linecap: butt; stroke: rgb(85%,43%,57%); fill: rgb(85%,43%,57%);"/>
			<polygon points="775.590936 165.113636, 779.458879 165.113636, 779.458879 171.250000, 775.590936 171.250000" style="stroke-linecap: butt; stroke-width: 1; stroke: rgb(100%,0%,0%); fill: rgb(100%,0%,0%);"/>
			<polygon points="942.439930 165.113636, 946.307873 165.113636, 946.307873 171.250000, 942.439930 171.250000" style="stroke-width: 1; stroke-linecap: butt; stroke: rgb(100%,0%,0%); fill: rgb(100%,0%,0%);"/>
			<polygon points="50.351631 457.613636, 218.607150 457.613636, 218.607150 463.750000, 50.351631 463.750000" style="stroke-linecap: butt; stroke-width: 1; stroke: rgb(85%,43%,57%); fill: rgb(85%,43%,57%);"/>
			<polygon points="50.351631 457.613636, 54.219574 457.613636, 54.219574 463.750000, 50.351631 463.750000" style="stroke-width: 1; stroke-linecap: butt; stroke: rgb(100%,0%,0%); fill: rgb(100%,0%,0%);"/>
			<polygon points="214.739207 457.613636, 218.607150 457.613636, 218.607150 463.750000, 214.739207 463.750000" style="stroke-linecap: butt; stroke-width: 1; stroke: rgb(100%,0%,0%); fill: rgb(100%,0%,0%);"/>
			<polygon points="348.534870 457.613636, 524.350459 457.613636, 524.350459 463.750000, 348.534870 463.750000" style="stroke-width: 1; stroke-linecap: butt; stroke: rgb(85%,43%,57%); fill: rgb(85%,43%,57%);"/>
			<polygon points="348.534870 457.613636, 352.402813 457.613636, 352.402813 463.750000, 348.534870 463.750000" style="stroke-linecap: butt; stroke-width: 1; stroke: rgb(100%,0%,0%); fill: rgb(100%,0%,0%);"/>
			<polygon points="520.482516 457.613636, 524.350459 457.613636, 524.350459 463.750000, 520.482516 463.750000" style="stroke-width: 1; stroke-linecap: butt; stroke: rgb(100%,0%,0%); fill: rgb(100%,0%,0%);"/>
			<polygon points="662.365696 457.613636, 823.061145 457.613636, 823.061145 463.750000, 662.365696 463.750000" style="stroke-linecap: butt; stroke-width: 1; stroke: rgb(85%,43%,57%); fill: rgb(85%,43%,57%);"/>
			<polygon points="662.365696 457.613636, 666.233639 457.613636, 666.233639 463.750000, 662.365696 463.750000" style="stroke-width: 1; stroke-linecap: butt; stroke: rgb(100%,0%,0%); fill: rgb(100%,0%,0%);"/>
			<polygon points="819.193202 457.613636, 823.061145 457.613636, 823.061145 463.750000, 819.193202 463.750000" style="stroke-linecap: butt; stroke-width: 1; stroke: rgb(100%,0%,0%); fill: rgb(100%,0%,0%);"/>
			<polygon points="56.505177 232.613636, 232.848213 232.613636, 232.848213 238.750000, 56.505177 238.750000" style="stroke-width: 1; stroke-linecap: butt; stroke: rgb(85%,43%,57%); fill: rgb(85%,43%,57%);"/>
			<polygon points="56.505177 232.613636, 60.373120 232.613636, 60.373120 238.750000, 56.505177 238.750000" style="stroke-linecap: butt; stroke-width: 1; stroke: rgb(100%,0%,0%); fill: rgb(100%,0%,0%);"/>
			<polygon points="228.980270 232.613636, 232.848213 232.613636, 232.848213 238.750000, 228.980270 238.750000" style="stroke-width: 1; stroke-linecap: butt; stroke: rgb(100%,0%,0%); fill: rgb(100%,0%,0%);"/>
			<polygon points="353.457707 232.613636, 530.504005 232.613636, 530.504005 238.750000, 353.457707 238.750000" style="stroke-linecap: butt; stroke-width: 1; stroke: rgb(85%,43%,57%); fill: rgb(85%,43%,57%);"/>
			<polygon points="353.457707 232.613636, 357.325650 232.613636, 357.325650 238.750000, 353.457707 238.750000" style="stroke-width: 1; stroke-linecap: butt; stroke: rgb(100%,0%,0%); fill: rgb(100%,0%,0%);"/>
			<polygon points="526.636062 232.613636, 530.504005 232.613636, 530.504005 238.750000, 526.636062 238.750000" style="stroke-linecap: butt; stroke-width: 1; stroke: rgb(100%,0%,0%); fill: rgb(100%,0%,0%);"/>
			<polygon points="661.486618 232.613636, 826.225825 232.613636, 826.225825 238.750000, 661.486618 238.750000" style="stroke-width: 1; stroke-linecap: butt; stroke: rgb(85%,43%,57%); fill: rgb(85%,43%,57%);"/>
			<polygon points="661.486618 232.613636, 665.354561 232.613636, 665.354561 238.750000, 661.486618 238.750000" style="stroke-linecap: butt; stroke-width: 1; stroke: rgb(100%,0%,0%); fill: rgb(100%,0%,0%);"/>
			<polygon points="822.357882 232.613636, 826.225825 232.613636, 826.225825 238.750000, 822.357882 238.750000" style="stroke-width: 1; stroke-linecap: butt; stroke: rgb(100%,0%,0%); fill: rgb(100%,0%,0%);"/>
			<path d="M 50.000000,325.681818 L 950.000000,325.681818 Z" style="stroke-linecap: butt; stroke-width: 1; stroke: rgb(0%,0%,0%);"/>
			<path d="M 50.000000,322.613636 L 50.000000,328.750000 Z" style="stroke-width: 1; stroke-linecap: butt; stroke: rgb(0%,0%,0%);"/>
			<path d="M 949.648369,97.613636 L 949.648369,103.750000 Z" style="stroke-linecap: butt; stroke-width: 1; stroke: rgb(0%,0%,0%);"/>
			<path d="M 50.000000,100.681818 L 949.648369,100.681818 Z" style="stroke-width: 1; stroke-linecap: butt; stroke: rgb(0%,0%,0%);"/>
			<path d="M 50.000000,97.613636 L 50.000000,103.750000 Z" style="stroke-linecap: butt; stroke-width: 1; stroke: rgb(0%,0%,0%);"/>
			<path d="M 225.815589,325.681818 L 225.815589,327.215909 Z" style="stroke-width: 1; stroke-linecap: butt; stroke: rgb(0%,0%,0%);"/>
			<path d="M 401.631178,325.681818 L 401.631178,327.215909 Z" style="stroke-linecap: butt; stroke-width: 1; stroke: rgb(0%,0%,0%);"/>
			<path d="M 577.446767,325.681818 L 577.446767,327.215909 Z" style="stroke-width: 1; stroke-linecap: butt; stroke: rgb(0%,0%,0%);"/>
			<path d="M 753.262356,325.681818 L 753.262356,327.215909 Z" style="stroke-linecap: butt; stroke-width: 1; stroke: rgb(0%,0%,0%);"/>
			<path d="M 929.077945,325.681818 L 929.077945,327.215909 Z" style="stroke-width: 1; stroke-linecap: butt; stroke: rgb(0%,0%,0%);"/>
			<path d="M 204.893534,100.681818 L 204.893534,102.215909 Z" style="stroke-linecap: butt; stroke-width: 1; stroke: rgb(0%,0%,0%);"/>
			<path d="M 380.709123,100.681818 L 380.709123,102.215909 Z" style="stroke-width: 1; stroke-linecap: butt; stroke: rgb(0%,0%,0%);"/>
			<path d="M 556.524712,100.681818 L 556.524712,102.215909 Z" style="stroke-linecap: butt; stroke-width: 1; stroke: rgb(0%,0%,0%);"/>
			<path d="M 732.340301,100.681818 L 732.340301,102.215909 Z" style="stroke-width: 1; stroke-linecap: butt; stroke: rgb(0%,0%,0%);"/>
			<path d="M 908.155890,100.681818 L 908.155890,102.215909 Z" style="stroke-linecap: butt; stroke-width: 1; stroke: rgb(0%,0%,0%);"/>
			<path d="M 908.155890,100.681818 L 908.155890,101.602273 Z" style="stroke-width: 1; stroke-linecap: butt; stroke: rgb(0%,0%,0%);"/>
			<path d="M 50.000000,393.181818 L 950.000000,393.181818 Z" style="stroke-linecap: butt; stroke-width: 1; stroke: rgb(0%,0%,0%);"/>
			<path d="M 50.000000,390.113636 L 50.000000,396.250000 Z" style="stroke-width: 1; stroke-linecap: butt; stroke: rgb(0%,0%,0%);"/>
			<path d="M 949.648369,165.113636 L 949.648369,171.250000 Z" style="stroke-linecap: butt; stroke-width: 1; stroke: rgb(0%,0%,0%);"/>
			<path d="M 50.000000,168.181818 L 949.648369,168.181818 Z" style="stroke-width: 1; stroke-linecap: butt; stroke: rgb(0%,0%,0%);"/>
			<path d="M 50.000000,165.113636 L 50.000000,171.250000 Z" style="stroke-linecap: butt; stroke-width: 1; stroke: rgb(0%,0%,0%);"/>
			<path d="M 908.155890,168.181818 L 908.155890,169.102273 Z" style="stroke-width: 1; stroke-linecap: butt; stroke: rgb(0%,0%,0%);"/>
			<path d="M 50.000000,460.681818 L 950.000000,460.681818 Z" style="stroke-linecap: butt; stroke-width: 1; stroke: rgb(0%,0%,0%);"/>
			<path d="M 50.000000,457.613636 L 50.000000,463.750000 Z" style="stroke-width: 1; stroke-linecap: butt; stroke: rgb(0%,0%,0%);"/>
			<path d="M 949.648369,232.613636 L 949.648369,238.750000 Z" style="stroke-linecap: butt; stroke-width: 1; stroke: rgb(0%,0%,0%);"/>
			<path d="M 50.000000,235.681818 L 949.648369,235.681818 Z" style="stroke-width: 1; stroke-linecap: butt; stroke: rgb(0%,0%,0%);"/>
			<path d="M 50.000000,232.613636 L 50.000000,238.750000 Z" style="stroke-linecap: butt; stroke-width: 1; stroke: rgb(0%,0%,0%);"/>
			<path d="M 908.155890,235.681818 L 908.155890,236.602273 Z" style="stroke-width: 1; stroke-linecap: butt; stroke: rgb(0%,0%,0%);"/>
			<g transform=" matrix(0.707107, 0.707107, -0.707107, 0.707107, 225.815589, 327.215909)">
				<text style="font-size: 10px; font-family: Helvetica; fill: rgb(0%,0%,0%);" transform="translate(0,0) scale(1,-1)" x="0" y="0">1000</text>
			</g>
			<g transform=" matrix(0.707107, 0.707107, -0.707107, 0.707107, 401.631178, 327.215909)">
				<text style="font-size: 10px; font-family: Helvetica; fill: rgb(0%,0%,0%);" transform="translate(0,0) scale(1,-1)" x="0" y="0">2000</text>
			</g>
			<g transform=" matrix(0.707107, 0.707107, -0.707107, 0.707107, 577.446767, 327.215909)">
				<text style="font-size: 10px; font-family: Helvetica; fill: rgb(0%,0%,0%);" transform="translate(0,0) scale(1,-1)" x="0" y="0">3000</text>
			</g>
			<g transform=" matrix(0.707107, 0.707107, -0.707107, 0.707107, 753.262356, 327.215909)">
				<text style="font-size: 10px; font-family: Helvetica; fill: rgb(0%,0%,0%);" transform="translate(0,0) scale(1,-1)" x="0" y="0">4000</text>
			</g>
			<g transform=" matrix(0.707107, 0.707107, -0.707107, 0.707107, 929.077945, 327.215909)">
				<text style="font-size: 10px; font-family: Helvetica; fill: rgb(0%,0%,0%);" transform="translate(0,0) scale(1,-1)" x="0" y="0">5000</text>
			</g>
			<g transform=" matrix(0.707107, 0.707107, -0.707107, 0.707107, 204.893534, 102.215909)">
				<text style="font-size: 10px; font-family: Helvetica; fill: rgb(0%,0%,0%);" transform="translate(0,0) scale(1,-1)" x="0" y="0">6000</text>
			</g>
			<g transform=" matrix(0.707107, 0.707107, -0.707107, 0.707107, 380.709123, 102.215909)">
				<text style="font-size: 10px; font-family: Helvetica; fill: rgb(0%,0%,0%);" transform="translate(0,0) scale(1,-1)" x="0" y="0">7000</text>
			</g>
			<g transform=" matrix(0.707107, 0.707107, -0.707107, 0.707107, 556.524712, 102.215909)">
				<text style="font-size: 10px; font-family: Helvetica; fill: rgb(0%,0%,0%);" transform="translate(0,0) scale(1,-1)" x="0" y="0">8000</text>
			</g>
			<g transform=" matrix(0.707107, 0.707107, -0.707107, 0.707107, 732.340301, 102.215909)">
				<text style="font-size: 10px; font-family: Helvetica; fill: rgb(0%,0%,0%);" transform="translate(0,0) scale(1,-1)" x="0" y="0">9000</text>
			</g>
			<g transform=" matrix(0.707107, 0.707107, -0.707107, 0.707107, 908.155890, 102.215909)">
				<text style="font-size: 10px; font-family: Helvetica; fill: rgb(0%,0%,0%);" transform="translate(0,0) scale(1,-1)" x="0" y="0">10000</text>
			</g>
			<g transform=" matrix(1.000000, 0.000000, -0.000000, 1.000000, 283.131471, 396.250000)">
				<text style="font-size: 10px; font-family: Helvetica; fill: rgb(0%,0%,0%);" transform="translate(0,0) scale(1,-1)" x="0" y="0">2</text>
			</g>
			<g transform=" matrix(1.000000, 0.000000, -0.000000, 1.000000, 592.566908, 396.250000)">
				<text style="font-size: 10px; font-family: Helvetica; fill: rgb(0%,0%,0%);" transform="translate(0,0) scale(1,-1)" x="0" y="0">4</text>
			</g>
			<g transform=" matrix(1.000000, 0.000000, -0.000000, 1.000000, 877.124438, 396.250000)">
				<text style="font-size: 10px; font-family: Helvetica; fill: rgb(0%,0%,0%);" transform="translate(0,0) scale(1,-1)" x="0" y="0">6</text>
			</g>
			<g transform=" matrix(1.000000, 0.000000, -0.000000, 1.000000, 62.219183, 171.250000)">
				<text style="font-size: 10px; font-family: Helvetica; fill: rgb(0%,0%,0%);" transform="translate(0,0) scale(1,-1)" x="0" y="0">6</text>
			</g>
			<g transform=" matrix(1.000000, 0.000000, -0.000000, 1.000000, 291.746435, 171.250000)">
				<text style="font-size: 10px; font-family: Helvetica; fill: rgb(0%,0%,0%);" transform="translate(0,0) scale(1,-1)" x="0" y="0">8</text>
			</g>
			<g transform=" matrix(1.000000, 0.000000, -0.000000, 1.000000, 594.764602, 171.250000)">
				<text style="font-size: 10px; font-family: Helvetica; fill: rgb(0%,0%,0%);" transform="translate(0,0) scale(1,-1)" x="0" y="0">10</text>
			</g>
			<g transform=" matrix(1.000000, 0.000000, -0.000000, 1.000000, 860.949404, 171.250000)">
				<text style="font-size: 10px; font-family: Helvetica; fill: rgb(0%,0%,0%);" transform="translate(0,0) scale(1,-1)" x="0" y="0">12</text>
			</g>
			<g transform=" matrix(1.000000, 0.000000, -0.000000, 1.000000, 134.479391, 463.750000)">
				<text style="font-size: 10px; font-family: Helvetica; fill: rgb(0%,0%,0%);" transform="translate(0,0) scale(1,-1)" x="0" y="0">1</text>
			</g>
			<g transform=" matrix(1.000000, 0.000000, -0.000000, 1.000000, 436.442665, 463.750000)">
				<text style="font-size: 10px; font-family: Helvetica; fill: rgb(0%,0%,0%);" transform="translate(0,0) scale(1,-1)" x="0" y="0">3</text>
			</g>
			<g transform=" matrix(1.000000, 0.000000, -0.000000, 1.000000, 742.713421, 463.750000)">
				<text style="font-size: 10px; font-family: Helvetica; fill: rgb(0%,0%,0%);" transform="translate(0,0) scale(1,-1)" x="0" y="0">5</text>
			</g>
			<g transform=" matrix(1.000000, 0.000000, -0.000000, 1.000000, 144.676695, 238.750000)">
				<text style="font-size: 10px; font-family: Helvetica; fill: rgb(0%,0%,0%);" transform="translate(0,0) scale(1,-1)" x="0" y="0">7</text>
			</g>
			<g transform=" matrix(1.000000, 0.000000, -0.000000, 1.000000, 441.980856, 238.750000)">
				<text style="font-size: 10px; font-family: Helvetica; fill: rgb(0%,0%,0%);" transform="translate(0,0) scale(1,-1)" x="0" y="0">9</text>
			</g>
			<g transform=" matrix(1.000000, 0.000000, -0.000000, 1.000000, 743.856222, 238.750000)">
				<text style="font-size: 10px; font-family: Helvetica; fill: rgb(0%,0%,0%);" transform="translate(0,0) scale(1,-1)" x="0" y="0">11</text>
			</g>
		</g>
	</g>
</svg>
